<?xml version="1.0" encoding="utf-8"?>
<!-- Generator: Adobe Illustrator 17.0.0, SVG Export Plug-In . SVG Version: 6.00 Build 0)  -->
<!DOCTYPE svg PUBLIC "-//W3C//DTD SVG 1.1//EN" "http://www.w3.org/Graphics/SVG/1.1/DTD/svg11.dtd">
<svg version="1.1" id="Capa_1" xmlns="http://www.w3.org/2000/svg" xmlns:xlink="http://www.w3.org/1999/xlink" x="0px" y="0px"
	 width="635.861px" height="129.062px" viewBox="0 0 635.861 129.062" enable-background="new 0 0 635.861 129.062"
	 xml:space="preserve">
<g>
	<path fill="#FFFFFF" d="M174.657,99.238h-39.568l-8.216,26.323h-25.569l41.162-122.06h25.066l40.994,122.06h-25.568L174.657,99.238
		z M141.125,80.04h27.581l-13.497-43.006h-0.503L141.125,80.04z"/>
	<path fill="#FFFFFF" d="M297.891,22.364h-34.875v103.197h-24.479V22.364h-34.371V3.501h93.725V22.364z"/>
	<path fill="#FFFFFF" d="M365.795,99.238h-39.569l-8.215,26.323h-25.569l41.162-122.06h25.065l40.994,122.06h-25.569L365.795,99.238
		z M332.261,80.04h27.581l-13.497-43.006h-0.503L332.261,80.04z"/>
	<path fill="#FFFFFF" d="M481.483,65.537h-60.024v60.023h-4.526V3.501h73.102v4.527h-68.575v52.814h60.024V65.537z"/>
	<path fill="#FFFFFF" d="M519.292,125.561h-4.526V3.501h4.526V125.561z"/>
	<path fill="#FFFFFF" d="M560.704,73.165v52.396h-4.526V3.501h38.144c12.63,0,22.354,3.172,29.174,9.515
		c6.817,6.344,10.228,14.769,10.228,25.275c0,10.619-3.396,19.086-10.186,25.401c-6.791,6.316-16.53,9.473-29.216,9.473H560.704z
		 M560.704,68.639h33.617c11.568,0,20.272-2.878,26.113-8.635c5.84-5.756,8.761-12.938,8.761-21.545
		c0-8.83-2.906-16.109-8.719-21.838c-5.813-5.728-14.531-8.593-26.155-8.593h-33.617V68.639z"/>
	<path fill="#FFFFFF" d="M68.287,33.307c2.083,5.835,3.578,11.932,4.425,18.216c1.8,13.351,0.588,26.645-3.419,39.105
		c-3.082-0.348-6.261,0.888-8.277,3.533c-0.664,0.87-1.146,1.821-1.456,2.805c-11.772-1.254-23.016-5.7-32.675-13.063
		c-8.011-6.107-14.371-13.799-18.783-22.535c1.046-0.592,1.996-1.399,2.772-2.417c2.612-3.426,2.421-8.109-0.194-11.299
		c4.212-3.364,8.686-6.403,13.406-9.105c10.334-5.908,21.47-9.978,33.165-12.136c0.449,2.033,1.587,3.921,3.375,5.284
		C62.892,33.423,65.712,33.924,68.287,33.307z"/>
	<path fill="#FFFFFF" d="M51.965,113.08c-10.067,5.754-20.849,9.862-32.148,12.262h24.816c1.322,0,2.616-0.051,3.897-0.125
		c2.382-2.475,4.651-5.085,6.766-7.858c2.623-3.441,4.969-7.032,7.038-10.744c-0.05-0.045-0.102-0.091-0.154-0.139
		C58.909,108.853,55.501,111.058,51.965,113.08z"/>
	<path fill="#FFFFFF" d="M81.438,17.81c-7.001-6.9-15.39-11.283-25.152-13.176c2.849,3.465,5.444,7.114,7.747,10.938
		c2.569-0.614,5.385-0.109,7.65,1.617c1.312,1,2.271,2.284,2.871,3.704c3.341-0.063,6.673,0.044,9.996,0.287
		C83.573,20.024,82.541,18.897,81.438,17.81z"/>
	<path fill="#FFFFFF" d="M85.309,83.824c-2.93,3.844-6.077,7.463-9.421,10.856c0.386,0.585,0.693,1.205,0.933,1.849
		c5.811-0.911,11.385-2.58,16.627-4.921c1.633-5.219,2.463-10.894,2.463-17.042v-7.53C92.901,72.892,89.367,78.5,85.309,83.824z"/>
	<path fill="#FFFFFF" d="M77.368,100.252c-0.106,1.74-0.712,3.471-1.851,4.964c-2.371,3.11-6.347,4.27-9.882,3.205
		c-2.161,3.875-4.611,7.625-7.35,11.218c-1.309,1.717-2.674,3.374-4.083,4.983c10.657-1.639,19.741-6.116,27.235-13.459
		c4.418-4.328,7.811-9.239,10.206-14.719C87.083,98.199,82.305,99.482,77.368,100.252z"/>
	<path fill="#FFFFFF" d="M75.268,24.641c-0.039,1.864-0.644,3.734-1.862,5.331c-0.501,0.657-1.078,1.224-1.704,1.704
		c2.242,6.192,3.839,12.664,4.741,19.343c1.88,13.929,0.609,27.802-3.58,40.795c0.122,0.071,0.235,0.142,0.351,0.215
		c3.233-3.276,6.27-6.776,9.101-10.488c5.544-7.273,10.09-15.091,13.595-23.364v-3.77c0-11.265-2.766-20.986-8.288-29.171
		C83.521,24.801,79.401,24.589,75.268,24.641z"/>
	<path fill="#FFFFFF" d="M7.446,3.548C4.958,8.74,3.173,14.207,2.138,19.838v23.661c0.055,0.301,0.105,0.602,0.164,0.902
		c1.795-0.263,3.667,0.008,5.358,0.846c4.555-3.699,9.417-7.026,14.556-9.967C33.112,29.052,44.87,24.8,57.22,22.597
		c0.265-1.3,0.823-2.559,1.68-3.682c0.506-0.664,1.084-1.237,1.716-1.719c-2.884-4.744-6.223-9.216-9.979-13.367
		c-1.953-0.181-3.952-0.28-6.005-0.28H7.446z"/>
	<path fill="#FFFFFF" d="M2.138,3.548v2.735c0.365-0.919,0.751-1.831,1.156-2.735H2.138z"/>
	<path fill="#FFFFFF" d="M24.602,86.896C15.96,80.307,9.129,71.971,4.458,62.502c-0.77,0.072-1.549,0.04-2.319-0.086v61.478
		c2.917-0.156,5.837-0.425,8.759-0.818c13.893-1.876,27.083-6.336,39.199-13.264c3.415-1.95,6.702-4.077,9.856-6.372
		c-0.388-0.866-0.64-1.789-0.745-2.726C46.742,99.394,34.829,94.693,24.602,86.896z"/>
</g>
</svg>
