<?xml version="1.0" encoding="utf-8"?>
<!-- Generator: Adobe Illustrator 17.0.0, SVG Export Plug-In . SVG Version: 6.00 Build 0)  -->
<!DOCTYPE svg PUBLIC "-//W3C//DTD SVG 1.1//EN" "http://www.w3.org/Graphics/SVG/1.1/DTD/svg11.dtd">
<svg version="1.1" id="Capa_1" xmlns="http://www.w3.org/2000/svg" xmlns:xlink="http://www.w3.org/1999/xlink" x="0px" y="0px"
	 width="1092.715px" height="139.016px" viewBox="0 0 1092.715 139.016" enable-background="new 0 0 1092.715 139.016"
	 xml:space="preserve">
<g>
	<path fill="#FFFFFF" d="M183.7,103.643h-39.568l-8.216,26.323h-25.569l41.162-122.06h25.066l40.994,122.06h-25.568L183.7,103.643z
		 M150.168,84.445h27.581l-13.497-43.006h-0.503L150.168,84.445z"/>
	<path fill="#FFFFFF" d="M306.934,26.769h-34.875v103.197H247.58V26.769h-34.371V7.906h93.725V26.769z"/>
	<path fill="#FFFFFF" d="M374.838,103.643h-39.569l-8.215,26.323h-25.569l41.162-122.06h25.065l40.994,122.06h-25.569
		L374.838,103.643z M341.304,84.445h27.581l-13.497-43.006h-0.503L341.304,84.445z"/>
	<path fill="#FFFFFF" d="M490.526,69.942h-60.024v60.023h-4.526V7.906h73.102v4.527h-68.575v52.814h60.024v4.695H490.526z"/>
	<path fill="#FFFFFF" d="M528.334,129.966h-4.526V7.906h4.526V129.966z"/>
	<path fill="#FFFFFF" d="M569.746,77.57v52.396h-4.526V7.906h38.144c12.63,0,22.354,3.172,29.174,9.515
		c6.817,6.344,10.228,14.769,10.228,25.275c0,10.619-3.396,19.086-10.186,25.401c-6.791,6.316-16.53,9.473-29.216,9.473H569.746z
		 M569.746,73.044h33.617c11.568,0,20.272-2.878,26.113-8.635c5.84-5.756,8.761-12.938,8.761-21.545
		c0-8.83-2.906-16.109-8.719-21.838c-5.813-5.728-14.531-8.593-26.155-8.593h-33.617L569.746,73.044L569.746,73.044z"/>
	<path fill="#FFFFFF" d="M77.33,37.712c2.083,5.835,3.578,11.932,4.425,18.216c1.8,13.351,0.588,26.645-3.419,39.105
		c-3.082-0.348-6.261,0.888-8.277,3.533c-0.664,0.87-1.146,1.821-1.456,2.805c-11.772-1.254-23.016-5.7-32.675-13.063
		c-8.011-6.107-14.371-13.799-18.783-22.535c1.046-0.592,1.996-1.399,2.772-2.417c2.612-3.426,2.421-8.109-0.194-11.299
		c4.212-3.364,8.686-6.403,13.406-9.105c10.334-5.908,21.47-9.978,33.165-12.136c0.449,2.033,1.587,3.921,3.375,5.284
		C71.935,37.828,74.755,38.329,77.33,37.712z"/>
	<path fill="#FFFFFF" d="M61.008,117.485c-10.067,5.754-20.849,9.862-32.148,12.262h24.816c1.322,0,2.616-0.051,3.897-0.125
		c2.382-2.475,4.651-5.085,6.766-7.858c2.623-3.441,4.969-7.032,7.038-10.744c-0.05-0.045-0.102-0.091-0.154-0.139
		C67.952,113.258,64.544,115.463,61.008,117.485z"/>
	<path fill="#FFFFFF" d="M90.481,22.215c-7.001-6.9-15.39-11.283-25.152-13.176c2.849,3.465,5.444,7.114,7.747,10.938
		c2.569-0.614,5.385-0.109,7.65,1.617c1.312,1,2.271,2.284,2.871,3.704c3.341-0.063,6.673,0.044,9.996,0.287
		C92.616,24.429,91.584,23.302,90.481,22.215z"/>
	<path fill="#FFFFFF" d="M94.352,88.229c-2.93,3.844-6.077,7.463-9.421,10.856c0.386,0.585,0.693,1.205,0.933,1.849
		c5.811-0.911,11.385-2.58,16.627-4.921c1.633-5.219,2.463-10.894,2.463-17.042v-7.53C101.944,77.297,98.41,82.905,94.352,88.229z"
		/>
	<path fill="#FFFFFF" d="M86.411,104.657c-0.106,1.74-0.712,3.471-1.851,4.964c-2.371,3.11-6.347,4.27-9.882,3.205
		c-2.161,3.875-4.611,7.625-7.35,11.218c-1.309,1.717-2.674,3.374-4.083,4.983c10.657-1.639,19.741-6.116,27.235-13.459
		c4.418-4.328,7.811-9.239,10.206-14.719C96.126,102.604,91.348,103.887,86.411,104.657z"/>
	<path fill="#FFFFFF" d="M84.311,29.046c-0.039,1.864-0.644,3.734-1.862,5.331c-0.501,0.657-1.078,1.224-1.704,1.704
		c2.242,6.192,3.839,12.664,4.741,19.343c1.88,13.929,0.609,27.802-3.58,40.795c0.122,0.071,0.235,0.142,0.351,0.215
		c3.233-3.276,6.27-6.776,9.101-10.488c5.544-7.273,10.09-15.091,13.595-23.364v-3.77c0-11.265-2.766-20.986-8.288-29.171
		C92.564,29.206,88.444,28.994,84.311,29.046z"/>
	<path fill="#FFFFFF" d="M16.489,7.953c-2.488,5.192-4.273,10.659-5.308,16.29v23.661c0.055,0.301,0.105,0.602,0.164,0.902
		c1.795-0.263,3.667,0.008,5.358,0.846c4.555-3.699,9.417-7.026,14.556-9.967c10.896-6.228,22.654-10.48,35.004-12.683
		c0.265-1.3,0.823-2.559,1.68-3.682c0.506-0.664,1.084-1.237,1.716-1.719c-2.884-4.744-6.223-9.216-9.979-13.367
		c-1.953-0.181-3.952-0.28-6.005-0.28H16.489V7.953z"/>
	<path fill="#FFFFFF" d="M11.181,7.953v2.735c0.365-0.919,0.751-1.831,1.156-2.735H11.181z"/>
	<path fill="#FFFFFF" d="M33.645,91.301c-8.642-6.589-15.473-14.925-20.144-24.394c-0.77,0.072-1.549,0.04-2.319-0.086v61.478
		c2.917-0.156,5.837-0.425,8.759-0.818c13.893-1.876,27.083-6.336,39.199-13.264c3.415-1.95,6.702-4.077,9.856-6.372
		c-0.388-0.866-0.64-1.789-0.745-2.726C55.785,103.799,43.872,99.098,33.645,91.301z"/>
</g>
<g>
	<path fill="#FFFFFF" d="M778.462,46.298h-15.387l-3.759,25.103h15.384c4.2,0,7.627-1.188,10.281-3.565
		c2.654-2.377,4.256-5.34,4.812-8.89c0.551-3.743-0.09-6.789-1.929-9.133S782.89,46.298,778.462,46.298z"/>
	<path fill="#FFFFFF" d="M838.384,46.298h-11.625l-7.814,52.11h11.625c5.469,0,10.222-1.954,14.259-5.86
		c4.037-3.906,6.529-8.84,7.473-14.799l1.613-10.891c0.91-6.217-0.009-11.201-2.761-14.944
		C848.406,48.171,844.147,46.298,838.384,46.298z"/>
	<path fill="#FFFFFF" d="M692.485,7.975l-30.588,121.991h421V7.975H692.485z M801.708,58.85c-1.041,6.904-4.053,12.308-9.034,16.213
		s-11.445,5.86-19.39,5.86h-15.432l-4.005,26.96H741.98l10.647-71.109h27.251c7.552,0,13.322,2.051,17.311,6.154
		C801.177,47.033,802.684,52.339,801.708,58.85z M865.783,66.958l-1.611,10.792c-1.401,9.215-5.3,16.541-11.698,21.979
		c-6.398,5.438-14.171,8.155-23.321,8.155h-23.49l10.647-71.109h23.49c8.661,0,15.484,2.84,20.465,8.521
		S867.084,58.199,865.783,66.958z M926.247,46.298h-32.526l-2.977,20.072h27.886l-1.464,9.524h-27.837l-3.371,22.514h32.82
		l-1.416,9.475h-44.691l10.647-71.109h44.346L926.247,46.298z M964.972,46.298l-9.231,61.585h-11.867l9.231-61.585H931.47
		l1.417-9.522h55.481l-1.417,9.522H964.972z M1041.11,57.533l-0.097,0.291h-11.429c0.52-3.678-0.409-6.689-2.783-9.034
		c-2.379-2.345-5.781-3.517-10.209-3.517c-3.255,0-6.066,0.797-8.424,2.392c-2.361,1.597-3.705,3.581-4.028,5.959
		c-0.553,3.452,0.147,6.048,2.101,7.789c1.954,1.742,6.104,3.705,12.454,5.885c7.652,2.474,13.202,5.469,16.654,8.987
		c3.45,3.517,4.722,8.399,3.811,14.652c-0.881,5.892-3.714,10.362-8.499,13.405c-4.787,3.045-10.762,4.566-17.926,4.566
		c-7.683,0-14.146-1.767-19.387-5.3c-5.243-3.531-7.211-9.027-5.91-16.482l0.097-0.291h11.379c-0.682,4.59,0.529,7.839,3.639,9.741
		c3.108,1.904,6.976,2.858,11.598,2.858c3.323,0,6.253-0.788,8.792-2.368s4.003-3.59,4.394-6.032
		c0.49-3.352-0.285-5.998-2.318-7.936c-2.035-1.936-5.901-3.852-11.6-5.74c-7.78-2.474-13.496-5.485-17.142-9.036
		c-3.646-3.547-4.999-8.415-4.053-14.603c0.845-5.632,3.644-10.035,8.399-13.211c4.755-3.176,10.566-4.762,17.436-4.762
		c7.814,0,13.902,1.938,18.267,5.813C1040.688,45.438,1042.283,50.76,1041.11,57.533z"/>
</g>
</svg>
