<?xml version="1.0" encoding="utf-8"?>
<!-- Generator: Adobe Illustrator 17.0.0, SVG Export Plug-In . SVG Version: 6.00 Build 0)  -->
<!DOCTYPE svg PUBLIC "-//W3C//DTD SVG 1.1//EN" "http://www.w3.org/Graphics/SVG/1.1/DTD/svg11.dtd">
<svg version="1.1" id="Capa_1" xmlns="http://www.w3.org/2000/svg" xmlns:xlink="http://www.w3.org/1999/xlink" x="0px" y="0px"
	 width="644.431px" height="209.031px" viewBox="0 0 644.431 209.031" enable-background="new 0 0 644.431 209.031"
	 xml:space="preserve">
<g>
	<path fill="#FFFFFF" d="M180.621,103.643h-39.568l-8.216,26.323h-25.569L148.43,7.906h25.066l40.994,122.06h-25.568
		L180.621,103.643z M147.089,84.445h27.581l-13.497-43.006h-0.503L147.089,84.445z"/>
	<path fill="#FFFFFF" d="M303.855,26.769H268.98v103.197h-24.479V26.769H210.13V7.906h93.725V26.769z"/>
	<path fill="#FFFFFF" d="M371.759,103.643H332.19l-8.215,26.323h-25.569l41.162-122.06h25.065l40.994,122.06h-25.569
		L371.759,103.643z M338.225,84.445h27.581l-13.497-43.006h-0.503L338.225,84.445z"/>
	<path fill="#FFFFFF" d="M487.447,69.942h-60.024v60.023h-4.526V7.906h73.102v4.527h-68.575v52.814h60.024v4.695H487.447z"/>
	<path fill="#FFFFFF" d="M525.255,129.966h-4.526V7.906h4.526V129.966z"/>
	<path fill="#FFFFFF" d="M566.667,77.57v52.396h-4.526V7.906h38.144c12.63,0,22.354,3.172,29.174,9.515
		c6.817,6.344,10.228,14.769,10.228,25.275c0,10.619-3.396,19.086-10.186,25.401c-6.791,6.316-16.53,9.473-29.216,9.473H566.667z
		 M566.667,73.044h33.617c11.568,0,20.272-2.878,26.113-8.635c5.84-5.756,8.761-12.938,8.761-21.545
		c0-8.83-2.906-16.109-8.719-21.838c-5.813-5.728-14.531-8.593-26.155-8.593h-33.617L566.667,73.044L566.667,73.044z"/>
	<path fill="#FFFFFF" d="M74.251,37.712c2.083,5.835,3.578,11.932,4.425,18.216c1.8,13.351,0.588,26.645-3.419,39.105
		c-3.082-0.348-6.261,0.888-8.277,3.533c-0.664,0.87-1.146,1.821-1.456,2.805c-11.772-1.254-23.016-5.7-32.675-13.063
		c-8.011-6.107-14.371-13.799-18.783-22.535c1.046-0.592,1.996-1.399,2.772-2.417c2.612-3.426,2.421-8.109-0.194-11.299
		c4.212-3.364,8.686-6.403,13.406-9.105c10.334-5.908,21.47-9.978,33.165-12.136c0.449,2.033,1.587,3.921,3.375,5.284
		C68.856,37.828,71.676,38.329,74.251,37.712z"/>
	<path fill="#FFFFFF" d="M57.929,117.485c-10.067,5.754-20.849,9.862-32.148,12.262h24.816c1.322,0,2.616-0.051,3.897-0.125
		c2.382-2.475,4.651-5.085,6.766-7.858c2.623-3.441,4.969-7.032,7.038-10.744c-0.05-0.045-0.102-0.091-0.154-0.139
		C64.873,113.258,61.465,115.463,57.929,117.485z"/>
	<path fill="#FFFFFF" d="M87.402,22.215c-7.001-6.9-15.39-11.283-25.152-13.176c2.849,3.465,5.444,7.114,7.747,10.938
		c2.569-0.614,5.385-0.109,7.65,1.617c1.312,1,2.271,2.284,2.871,3.704c3.341-0.063,6.673,0.044,9.996,0.287
		C89.537,24.429,88.505,23.302,87.402,22.215z"/>
	<path fill="#FFFFFF" d="M91.273,88.229c-2.93,3.844-6.077,7.463-9.421,10.856c0.386,0.585,0.693,1.205,0.933,1.849
		c5.811-0.911,11.385-2.58,16.627-4.921c1.633-5.219,2.463-10.894,2.463-17.042v-7.53C98.865,77.297,95.331,82.905,91.273,88.229z"
		/>
	<path fill="#FFFFFF" d="M83.332,104.657c-0.106,1.74-0.712,3.471-1.851,4.964c-2.371,3.11-6.347,4.27-9.882,3.205
		c-2.161,3.875-4.611,7.625-7.35,11.218c-1.309,1.717-2.674,3.374-4.083,4.983c10.657-1.639,19.741-6.116,27.235-13.459
		c4.418-4.328,7.811-9.239,10.206-14.719C93.047,102.604,88.269,103.887,83.332,104.657z"/>
	<path fill="#FFFFFF" d="M81.232,29.046c-0.039,1.864-0.644,3.734-1.862,5.331c-0.501,0.657-1.078,1.224-1.704,1.704
		c2.242,6.192,3.839,12.664,4.741,19.343c1.88,13.929,0.609,27.802-3.58,40.795c0.122,0.071,0.235,0.142,0.351,0.215
		c3.233-3.276,6.27-6.776,9.101-10.488c5.544-7.273,10.09-15.091,13.595-23.364v-3.77c0-11.265-2.766-20.986-8.288-29.171
		C89.485,29.206,85.365,28.994,81.232,29.046z"/>
	<path fill="#FFFFFF" d="M13.41,7.953c-2.488,5.192-4.273,10.659-5.308,16.29v23.661c0.055,0.301,0.105,0.602,0.164,0.902
		c1.795-0.263,3.667,0.008,5.358,0.846c4.555-3.699,9.417-7.026,14.556-9.967c10.896-6.228,22.654-10.48,35.004-12.683
		c0.265-1.3,0.823-2.559,1.68-3.682c0.506-0.664,1.084-1.237,1.716-1.719c-2.884-4.744-6.223-9.216-9.979-13.367
		c-1.953-0.181-3.952-0.28-6.005-0.28H13.41V7.953z"/>
	<path fill="#FFFFFF" d="M8.102,7.953v2.735c0.365-0.919,0.751-1.831,1.156-2.735H8.102z"/>
	<path fill="#FFFFFF" d="M30.566,91.301c-8.642-6.589-15.473-14.925-20.144-24.394c-0.77,0.072-1.549,0.04-2.319-0.086v61.478
		c2.917-0.156,5.837-0.425,8.759-0.818c13.893-1.876,27.083-6.336,39.199-13.264c3.415-1.95,6.702-4.077,9.856-6.372
		c-0.388-0.866-0.64-1.789-0.745-2.726C52.706,103.799,40.793,99.098,30.566,91.301z"/>
</g>
<g>
	<path fill="#FFFFFF" d="M504.928,166.995h-6.811l-1.664,11.112h6.81c1.859,0,3.376-0.526,4.551-1.578s1.884-2.364,2.13-3.935
		c0.244-1.657-0.04-3.005-0.854-4.043S506.888,166.995,504.928,166.995z"/>
	<path fill="#FFFFFF" d="M531.453,166.995h-5.146l-3.459,23.067h5.146c2.421,0,4.525-0.865,6.312-2.594s2.89-3.913,3.308-6.551
		l0.714-4.821c0.403-2.752-0.004-4.958-1.222-6.615C535.889,167.824,534.004,166.995,531.453,166.995z"/>
	<path fill="#FFFFFF" d="M317.395,150.031l-13.54,54h335.833v-54H317.395z M515.218,172.551c-0.461,3.056-1.794,5.448-3.999,7.177
		s-5.066,2.594-8.583,2.594h-6.831l-1.773,11.934h-5.253l4.713-31.477h12.063c3.343,0,5.897,0.908,7.663,2.724
		C514.983,167.32,515.65,169.669,515.218,172.551z M543.581,176.14l-0.713,4.777c-0.62,4.079-2.346,7.322-5.178,9.729
		c-2.832,2.407-6.273,3.61-10.323,3.61h-10.398l4.713-31.477h10.398c3.834,0,6.854,1.257,9.059,3.772
		S544.157,172.263,543.581,176.14z M570.346,166.995h-14.398l-1.318,8.885h12.344l-0.648,4.216h-12.322l-1.492,9.966h14.528
		l-0.627,4.194H546.63l4.713-31.477h19.63L570.346,166.995z M587.488,166.995l-4.086,27.261h-5.253l4.086-27.261h-9.577l0.627-4.215
		h24.559l-0.627,4.215H587.488z M621.191,171.968l-0.043,0.129h-5.059c0.23-1.628-0.181-2.961-1.232-3.999
		c-1.053-1.038-2.559-1.557-4.519-1.557c-1.441,0-2.685,0.353-3.729,1.059c-1.045,0.707-1.64,1.585-1.783,2.638
		c-0.245,1.528,0.065,2.677,0.93,3.448c0.865,0.771,2.702,1.64,5.513,2.605c3.387,1.095,5.844,2.421,7.372,3.978
		c1.527,1.557,2.09,3.718,1.687,6.486c-0.39,2.608-1.644,4.587-3.762,5.934c-2.119,1.348-4.764,2.021-7.935,2.021
		c-3.401,0-6.262-0.782-8.582-2.346c-2.321-1.563-3.192-3.996-2.616-7.296l0.043-0.129h5.037c-0.302,2.032,0.234,3.47,1.611,4.312
		c1.376,0.843,3.088,1.265,5.134,1.265c1.471,0,2.768-0.349,3.892-1.048c1.124-0.699,1.772-1.589,1.945-2.67
		c0.217-1.484-0.126-2.655-1.026-3.513c-0.901-0.857-2.612-1.705-5.135-2.541c-3.444-1.095-5.974-2.428-7.588-4
		c-1.614-1.57-2.213-3.725-1.794-6.464c0.374-2.493,1.613-4.442,3.718-5.848s4.677-2.108,7.718-2.108
		c3.459,0,6.154,0.858,8.086,2.573C621.004,166.614,621.71,168.97,621.191,171.968z"/>
</g>
</svg>
