<?xml version="1.0" encoding="utf-8"?>
<!-- Generator: Adobe Illustrator 17.0.0, SVG Export Plug-In . SVG Version: 6.00 Build 0)  -->
<!DOCTYPE svg PUBLIC "-//W3C//DTD SVG 1.1//EN" "http://www.w3.org/Graphics/SVG/1.1/DTD/svg11.dtd">
<svg version="1.1" id="Layer_1" xmlns="http://www.w3.org/2000/svg" xmlns:xlink="http://www.w3.org/1999/xlink" x="0px" y="0px"
	 width="293.827px" height="172.84px" viewBox="0 0 293.827 172.84" enable-background="new 0 0 293.827 172.84"
	 xml:space="preserve">
<g>
	<g>
		<path fill="#FFFFFF" d="M240.838,8.689c-0.163,0-0.325,0-0.487,0.009c-0.041-0.009-0.082-0.009-0.122,0h-63.494v127.173h48.182
			V103.1h15.922c26.067,0,47.205-21.137,47.205-47.204C288.043,29.828,266.905,8.689,240.838,8.689z M232.9,72.078V72.07h-7.872
			V40.493h7.872c8.725,0,15.793,7.076,15.793,15.792C248.693,65.01,241.625,72.078,232.9,72.078z"/>
		<path fill="#FFFFFF" d="M88.504,57.042V87.56H52.891v48.312H4.581V16.812c0-4.491,3.64-8.123,8.124-8.123h86.344l0.008,31.804
			H52.891v16.549H88.504z"/>
		<rect x="113.736" y="72.288" fill="#FFFFFF" width="48.31" height="63.593"/>
		<path fill="#FFFFFF" d="M162.046,8.682v0.017l-48.31,48.789V16.812c0-4.491,3.64-8.123,8.123-8.123L162.046,8.682z"/>
		<polygon fill="#FFFFFF" points="162.046,8.689 162.046,40.49 130.568,40.491 130.568,40.483 		"/>
		<g>
			<path fill="#FFFFFF" d="M5.75,157.549V146.46h7.588v1.045h-6.48v4.213H13.1v1.046H6.858v4.785L5.75,157.549L5.75,157.549z"/>
			<path fill="#FFFFFF" d="M24.758,146.46v6.764c0,2.994-1.965,4.437-4.373,4.437c-2.407,0-4.436-1.442-4.436-4.437v-6.764h1.109
				v6.764c0,2.106,1.441,3.406,3.326,3.406c1.68,0,3.264-1.093,3.264-3.406v-6.764L24.758,146.46L24.758,146.46z"/>
			<path fill="#FFFFFF" d="M35.971,155.457l-0.062-3.676v-5.321h1.108v11.089h-0.665l-7.176-8.919l0.031,3.278v5.641h-1.108V146.46
				h0.697L35.971,155.457z"/>
			<path fill="#FFFFFF" d="M44.396,146.46c3.754,0,5.56,2.692,5.56,5.433c0,2.805-1.679,5.656-5.56,5.656c-1.284,0-2.631,0-3.913,0
				V146.46H44.396z M41.593,156.519h2.804c3.088,0,4.481-2.408,4.436-4.643c-0.048-2.154-1.442-4.371-4.436-4.371h-2.804V156.519z"
				/>
			<path fill="#FFFFFF" d="M59.791,154.981h-6.432l-1.141,2.567h-1.172l4.975-11.089h1.108l4.975,11.089h-1.173L59.791,154.981z
				 M53.804,153.968h5.544l-2.772-6.306L53.804,153.968z"/>
			<path fill="#FFFFFF" d="M73.032,156.043c-1.125,1.125-2.55,1.681-4.039,1.681c-3.834,0-5.751-2.567-5.767-5.657
				c-0.017-3.025,1.917-5.766,5.767-5.766c1.473,0,2.962,0.522,3.929,1.663l-0.681,0.683c-0.904-0.889-2.06-1.332-3.248-1.332
				c-3.09,0-4.658,2.282-4.658,4.736c0,2.599,1.568,4.643,4.658,4.643c1.188,0,2.439-0.476,3.326-1.363L73.032,156.043z"/>
			<path fill="#FFFFFF" d="M75.549,157.549V146.46h1.109v11.089L75.549,157.549L75.549,157.549z"/>
			<path fill="#FFFFFF" d="M85.037,146.27c3.755,0.016,5.624,2.804,5.607,5.766c-0.016,2.898-1.853,5.72-5.607,5.72
				c-3.77,0-5.624-2.821-5.624-5.735C79.413,148.898,81.44,146.27,85.037,146.27z M80.522,152.035
				c0.031,2.424,1.489,4.674,4.515,4.674s4.482-2.297,4.499-4.674c0-2.486-1.474-4.704-4.499-4.721
				C82.059,147.314,80.49,149.422,80.522,152.035z M86.907,143.196h-1.269l-1.188,1.964v0.063h0.968l1.489-1.996V143.196z"/>
			<path fill="#FFFFFF" d="M101.271,155.457l-0.062-3.676v-5.321h1.108v11.089h-0.665l-7.177-8.919l0.032,3.278v5.641h-1.109V146.46
				h0.697L101.271,155.457z"/>
			<path fill="#FFFFFF" d="M110.136,157.549V146.46h2.455v11.089L110.136,157.549L110.136,157.549z"/>
			<path fill="#FFFFFF" d="M120.004,146.46c3.817,0,5.513,2.565,5.513,5.464s-1.632,5.625-5.513,5.625c-1.395,0-3.152,0-4.547,0
				V146.46H120.004z M117.896,155.267h2.107c2.408,0,3.073-1.773,3.073-3.374c0-1.6-0.761-3.2-3.073-3.2h-2.107V155.267z"/>
			<path fill="#FFFFFF" d="M136.223,157.549h-8.443c0-3.692,0-7.398,0-11.089H136v2.264h-5.797v2.139h5.465v2.171h-5.465v2.233h6.02
				V157.549z"/>
			<path fill="#FFFFFF" d="M146.422,155.647h-5.687l-0.808,1.901h-2.662l4.975-11.089h2.692l4.975,11.089h-2.678L146.422,155.647z
				 M143.587,148.962l-1.918,4.5h3.818L143.587,148.962z"/>
			<path fill="#FFFFFF" d="M157.722,149.137c-0.618-0.649-1.695-0.935-2.566-0.935c-1.094,0-1.98,0.46-1.98,1.22
				c0,1.014,0.967,1.204,2.392,1.33c2.187,0.19,4.261,1.029,4.261,3.597c0,2.47-2.28,3.548-4.672,3.563
				c-1.918,0.016-3.914-0.729-4.849-2.28l1.474-1.537c0.855,1.093,2.266,1.569,3.391,1.569c1.314,0,2.217-0.524,2.217-1.315
				c0.017-0.935-0.728-1.363-2.232-1.49c-2.346-0.221-4.437-0.808-4.404-3.421c0.016-2.202,2.106-3.374,4.388-3.374
				c1.711,0,2.994,0.38,4.135,1.71L157.722,149.137z"/>
			<path fill="#FFFFFF" d="M168.916,154.412v3.137h-2.472V146.46c1.774,0,3.47,0,5.228,0c2.836,0,4.246,1.837,4.246,3.976
				c0,2.219-1.426,3.944-4.246,3.977h-2.756V154.412z M168.916,152.146h2.756c1.188,0,1.774-0.776,1.774-1.663
				s-0.602-1.681-1.774-1.681h-2.756V152.146z"/>
			<path fill="#FFFFFF" d="M184.93,155.647h-5.688l-0.808,1.901h-2.661l4.974-11.089h2.693l4.975,11.089h-2.678L184.93,155.647z
				 M182.095,148.962l-1.918,4.5h3.818L182.095,148.962z"/>
			<path fill="#FFFFFF" d="M199.817,157.549h-2.739l-2.837-3.645h-1.789v3.645h-2.472V146.46c1.806,0,3.47,0,5.259,0
				c2.678,0,4.104,1.789,4.104,3.738c-0.016,1.441-0.443,2.724-2.566,3.485l3.041,3.675v0.191H199.817z M192.452,148.583v3.229
				h2.819c1.141,0,1.632-0.854,1.632-1.552c-0.016-0.76-0.507-1.678-1.664-1.678L192.452,148.583L192.452,148.583z"/>
			<path fill="#FFFFFF" d="M209.717,155.647h-5.688l-0.808,1.901h-2.661l4.974-11.089h2.693l4.975,11.089h-2.678L209.717,155.647z
				 M206.882,148.962l-1.918,4.5h3.818L206.882,148.962z"/>
			<path fill="#FFFFFF" d="M221.115,146.46v8.823h5.545v2.266h-8.016V146.46H221.115z"/>
			<path fill="#FFFFFF" d="M236.4,155.647h-5.688l-0.808,1.901h-2.662l4.975-11.089h2.693l4.974,11.089h-2.677L236.4,155.647z
				 M233.564,148.962l-1.917,4.5h3.818L233.564,148.962z"/>
			<path fill="#FFFFFF" d="M247.565,154.412v3.137h-2.472V146.46c1.774,0,3.47,0,5.228,0c2.836,0,4.245,1.837,4.245,3.976
				c0,2.219-1.425,3.944-4.245,3.977h-2.756V154.412z M247.565,152.146h2.756c1.188,0,1.774-0.776,1.774-1.663
				s-0.603-1.681-1.774-1.681h-2.756V152.146z"/>
			<path fill="#FFFFFF" d="M263.578,155.647h-5.688l-0.807,1.901h-2.662l4.974-11.089h2.693l4.975,11.089h-2.678L263.578,155.647z
				 M260.743,148.962l-1.918,4.5h3.818L260.743,148.962z"/>
			<path fill="#FFFFFF" d="M268.153,146.46h8.476v1.077l-5.323,7.698h5.45v2.313h-8.871v-1.284l5.417-7.682h-5.148v-2.122H268.153z"
				/>
		</g>
		<g>
			<path fill="#FFFFFF" d="M278.729,167.691H4.583v-2.303h274.146c3.845,0,6.973-3.128,6.973-6.972V106.44l2.303-2.341v54.316
				C288.005,163.531,283.845,167.691,278.729,167.691z"/>
		</g>
		<line fill="#FFFFFF" x1="288.046" y1="167.691" x2="288.005" y2="167.691"/>
	</g>
</g>
</svg>
